<svg width="40" height="39" viewBox="0 0 40 39" fill="none" xmlns="http://www.w3.org/2000/svg">
<path d="M19.7023 28.4571H8.63359L6.41985 35.5429C6.41985 35.7714 6.19847 36 5.75573 36H0.442748C0.327915 35.9919 0.219811 35.9411 0.138421 35.8571C0.0570318 35.773 0.00786113 35.6614 0 35.5429L9.51908 7.2C9.74046 6.97143 9.74046 6.74286 9.74046 6.28571C9.92309 5.61719 9.99788 4.92218 9.96183 4.22857L10.1832 4H17.7099C17.9313 4 18.1527 4 18.1527 4.22857L29 35.5429C29 35.7714 29 36 28.7786 36H22.5802C22.4653 35.9919 22.3572 35.9411 22.2758 35.8571C22.1944 35.773 22.1453 35.6614 22.1374 35.5429L19.7023 28.4571ZM10.4046 22.2857H17.9313C17.7099 21.6 17.4885 20.9143 17.2672 20C17.0709 19.1282 16.7736 18.284 16.3817 17.4857C16.1603 16.5714 15.7176 15.6571 15.4962 14.7429C15.3016 13.7972 15.0046 12.8771 14.6107 12C14.3182 11.2621 14.0958 10.4966 13.9466 9.71429C13.7106 11.046 13.3396 12.3484 12.8397 13.6C12.3969 14.9714 11.9542 16.5714 11.5115 18.1714C11.2458 19.5703 10.8758 20.9458 10.4046 22.2857Z"/>
<path d="M36.3791 9.60555C35.4354 9.57079 34.5358 9.17329 33.8481 8.48715C33.2603 7.73574 32.9593 6.77809 33.0044 5.80297C33.0372 4.80217 33.412 3.84817 34.059 3.11879C34.3903 2.7643 34.7845 2.48292 35.219 2.29089C35.6534 2.09887 36.1193 2 36.59 2C37.0606 2 37.5266 2.09887 37.961 2.29089C38.3954 2.48292 38.7896 2.7643 39.1209 3.11879C39.454 3.46185 39.7044 3.88472 39.8512 4.35183C39.9981 4.81893 40.0369 5.3166 39.9646 5.80297C40.0169 6.30842 39.9477 6.8197 39.7632 7.28908C39.5788 7.75846 39.2853 8.17064 38.91 8.48715C38.5811 8.84499 38.1873 9.12855 37.7524 9.32076C37.3174 9.51296 36.8502 9.60984 36.3791 9.60555ZM33.4263 35.329V12.5134C33.4337 12.3974 33.4806 12.2882 33.5581 12.2059C33.6357 12.1237 33.7387 12.074 33.8481 12.0661H39.3319C39.4413 12.074 39.5443 12.1237 39.6218 12.2059C39.6994 12.2882 39.7462 12.3974 39.7537 12.5134V35.5526C39.7462 35.6687 39.6994 35.7779 39.6218 35.8601C39.5443 35.9424 39.4413 35.9921 39.3319 36H33.8481C33.4263 36 33.4263 35.7763 33.4263 35.329Z"/>
</svg>
