<svg width="30" height="30" viewBox="0 0 30 30" fill="none" xmlns="http://www.w3.org/2000/svg">
<g clip-path="url(#clip0_84_28)">
<path d="M15 12.3262C14.6489 12.3262 14.3012 12.3954 13.9768 12.5298C13.6524 12.6641 13.3577 12.8611 13.1094 13.1094C12.8611 13.3576 12.6641 13.6524 12.5298 13.9768C12.3954 14.3012 12.3263 14.6489 12.3263 15C12.3263 15.3511 12.3954 15.6988 12.5298 16.0232C12.6641 16.3476 12.8611 16.6423 13.1094 16.8906C13.3577 17.1389 13.6524 17.3358 13.9768 17.4702C14.3012 17.6046 14.6489 17.6737 15 17.6737C15.3511 17.6737 15.6988 17.6046 16.0232 17.4702C16.3476 17.3358 16.6423 17.1389 16.8906 16.8906C17.1389 16.6423 17.3359 16.3476 17.4702 16.0232C17.6046 15.6988 17.6737 15.3511 17.6737 15C17.6737 14.6489 17.6046 14.3012 17.4702 13.9768C17.3359 13.6524 17.1389 13.3576 16.8906 13.1094C16.6423 12.8611 16.3476 12.6641 16.0232 12.5298C15.6988 12.3954 15.3511 12.3262 15 12.3262ZM7.51 20.3187L6.92 20.1687C2.5225 19.0575 0 17.1712 0 14.995C0 12.8187 2.5225 10.9325 6.92 9.82124L7.51 9.67249L7.67625 10.2575C8.12173 11.7921 8.69153 13.2879 9.38 14.73L9.50625 14.9962L9.38 15.2625C8.69038 16.7041 8.12054 18.2 7.67625 19.735L7.51 20.3187ZM6.64625 11.1875C3.30375 12.1262 1.2525 13.5625 1.2525 14.995C1.2525 16.4262 3.30375 17.8625 6.64625 18.8025C7.05503 17.5024 7.54859 16.2305 8.12375 14.995C7.54793 13.7597 7.05436 12.4878 6.64625 11.1875ZM22.49 20.3187L22.3237 19.7325C21.8787 18.1979 21.3085 16.7025 20.6188 15.2612L20.4925 14.995L20.6188 14.7287C21.3082 13.2869 21.8784 11.7911 22.3237 10.2562L22.49 9.67124L23.0813 9.81999C27.4775 10.9312 30 12.8175 30 14.995C30 17.1725 27.4775 19.0575 23.0813 20.1687L22.49 20.3187ZM21.8762 14.995C22.4762 16.2937 22.9725 17.57 23.3538 18.8025C26.6975 17.8625 28.7475 16.4262 28.7475 14.995C28.7475 13.5625 26.6963 12.1275 23.3538 11.1875C22.9455 12.4878 22.4519 13.7597 21.8762 14.995ZM6.6375 11.1812L6.47125 10.5975C5.235 6.23999 5.61 3.11749 7.5 2.02749C9.35375 0.957489 12.33 2.22124 15.4488 5.42249L15.8738 5.85874L15.4488 6.29499C14.3406 7.447 13.3281 8.68735 12.4213 10.0037L12.2525 10.245L11.9588 10.27C10.3636 10.3957 8.78136 10.6507 7.2275 11.0325L6.6375 11.1812ZM9.0075 2.89374C8.6725 2.89374 8.37625 2.96624 8.12625 3.10999C6.88375 3.82624 6.66375 6.31624 7.52 9.67624C8.85205 9.3799 10.202 9.17071 11.5612 9.04999C12.3455 7.93484 13.2024 6.87255 14.1262 5.86999C12.1762 3.97124 10.33 2.89374 9.0075 2.89374ZM20.9938 28.3462C20.9925 28.3462 20.9925 28.3462 20.9938 28.3462C19.2125 28.3462 16.925 27.005 14.5512 24.5675L14.1262 24.1312L14.5512 23.695C15.6591 22.5426 16.6712 21.3018 17.5775 19.985L17.7462 19.7437L18.0387 19.7187C19.6347 19.5937 21.2178 19.3391 22.7725 18.9575L23.3625 18.8087L23.53 19.3937C24.7637 23.7487 24.39 26.8725 22.5 27.9612C22.0409 28.2208 21.5211 28.3537 20.9938 28.3462ZM15.8738 24.12C17.8238 26.0187 19.67 27.0962 20.9925 27.0962C21.3263 27.0962 21.625 27.0237 21.8738 26.88C23.1163 26.1637 23.3375 23.6725 22.48 20.3125C21.1476 20.6092 19.7972 20.8184 18.4375 20.9387C17.6542 22.0547 16.7977 23.1174 15.8738 24.12ZM23.3625 11.1812L22.7725 11.0325C21.218 10.6496 19.6348 10.3946 18.0387 10.27L17.7462 10.245L17.5775 10.0037C16.6717 8.68693 15.6596 7.44654 14.5512 6.29499L14.1262 5.85874L14.5512 5.42249C17.6687 2.22249 20.6437 0.958739 22.5 2.02749C24.39 3.11749 24.765 6.23999 23.53 10.5962L23.3625 11.1812ZM18.4375 9.04999C19.865 9.17999 21.2212 9.39124 22.48 9.67624C23.3375 6.31624 23.1163 3.82624 21.8738 3.10999C20.6388 2.39624 18.3175 3.48999 15.8738 5.86999C16.7972 6.87259 17.6536 7.93488 18.4375 9.04999ZM9.0075 28.3462C8.47974 28.3539 7.95945 28.221 7.5 27.9612C5.61 26.8725 5.235 23.75 6.47125 19.3937L6.63625 18.8087L7.22625 18.9575C8.67 19.3212 10.2625 19.5775 11.9575 19.7187L12.2512 19.7437L12.4188 19.985C13.3257 21.3017 14.3382 22.5424 15.4463 23.695L15.8712 24.1312L15.4463 24.5675C13.0738 27.005 10.7862 28.3462 9.0075 28.3462ZM7.52 20.3125C6.6625 23.6725 6.88375 26.1637 8.12625 26.88C9.36 27.5837 11.68 26.4987 14.1262 24.12C13.2028 23.1167 12.3459 22.054 11.5612 20.9387C10.2019 20.8185 8.85195 20.6093 7.52 20.3125ZM15 21.0975C13.9712 21.0975 12.9138 21.0525 11.855 20.965L11.5612 20.94L11.3925 20.6987C10.7936 19.8382 10.2307 18.9533 9.705 18.0462C9.1809 17.1384 8.69465 16.2093 8.2475 15.2612L8.12375 14.995L8.2475 14.7287C8.69459 13.7806 9.18084 12.8515 9.705 11.9437C10.2225 11.0487 10.7913 10.1562 11.3925 9.29124L11.5612 9.04999L11.855 9.02499C13.9483 8.84749 16.0529 8.84749 18.1463 9.02499L18.4388 9.04999L18.6063 9.29124C19.8052 11.0126 20.8577 12.8314 21.7525 14.7287L21.8788 14.995L21.7525 15.2612C20.8598 17.1597 19.8073 18.9787 18.6063 20.6987L18.4388 20.94L18.1463 20.965C17.0875 21.0525 16.0288 21.0975 15 21.0975ZM12.2538 19.7425C14.1038 19.8812 15.8963 19.8812 17.7475 19.7425C18.781 18.2316 19.6987 16.6445 20.4925 14.995C19.7001 13.3445 18.7819 11.7573 17.7462 10.2475C15.918 10.1087 14.082 10.1087 12.2538 10.2475C11.2176 11.757 10.2995 13.3442 9.5075 14.995C10.3022 16.6443 11.2202 18.2313 12.2538 19.7425Z"/>
</g>
<defs>
<clipPath id="clip0_84_28">
<rect width="30" height="30"/>
</clipPath>
</defs>
</svg>
